<?xml version="1.0" encoding="utf-8"?>
<!-- Generator: Adobe Illustrator 16.0.0, SVG Export Plug-In . SVG Version: 6.00 Build 0)  -->
<!DOCTYPE svg PUBLIC "-//W3C//DTD SVG 1.1//EN" "http://www.w3.org/Graphics/SVG/1.1/DTD/svg11.dtd">
<svg version="1.1" id="Layer_1" xmlns="http://www.w3.org/2000/svg" xmlns:xlink="http://www.w3.org/1999/xlink" x="0px" y="0px"
	 width="24px" height="24px" viewBox="0 0 24 24" enable-background="new 0 0 24 24" xml:space="preserve">
<g>
	<path d="M11.065,22.994v-1.214l-0.088-0.079c-0.104,0.068-0.226,0.111-0.359,0.117c-0.013,0-0.027,0-0.041,0
		c-0.141,0-0.272-0.039-0.385-0.106v1.224c-0.44,0.153-0.76,0.569-0.76,1.064h2.254C11.687,23.56,11.434,23.177,11.065,22.994
		L11.065,22.994z M11.065,22.994"/>
	<path d="M13.823,22.936v-1.226c-0.11,0.07-0.242,0.108-0.382,0.108c-0.014,0-0.029,0-0.041,0c-0.133-0.006-0.255-0.049-0.359-0.117
		l-0.088,0.079v1.213c-0.368,0.185-0.622,0.567-0.622,1.005h2.251C14.582,23.505,14.266,23.086,13.823,22.936L13.823,22.936z
		 M13.823,22.936"/>
	<path d="M15.333,17.08"/>
	<path d="M10.192,19.55v0.887c0.102-0.061,0.22-0.097,0.344-0.104c0.202-0.011,0.386,0.059,0.527,0.181l-0.039-0.965L10.192,19.55z"
		/>
	<path d="M13.062,19.549l-0.04,0.965c0.141-0.123,0.325-0.192,0.527-0.181c0.124,0.007,0.242,0.043,0.344,0.104V19.55L13.062,19.549
		z"/>
	<polygon points="10.873,14.774 9.333,14.774 9.39,15.646 9.629,19.284 10.192,19.284 11.063,19.284 12.95,19.284 13.823,19.284 
		14.386,19.284 14.624,15.646 14.682,14.774 13.143,14.771 	"/>
	<g>
		<path d="M10.107,7.941c0,0.401-0.327,0.728-0.729,0.728c-0.407,0-0.728-0.326-0.728-0.728c0-0.401,0.321-0.728,0.728-0.728
			C9.78,7.213,10.107,7.54,10.107,7.941L10.107,7.941z M10.107,7.941"/>
		<path d="M15.354,7.941c0,0.401-0.327,0.728-0.728,0.728c-0.4,0-0.728-0.326-0.728-0.728c0-0.401,0.327-0.728,0.728-0.728
			C15.028,7.213,15.354,7.54,15.354,7.941L15.354,7.941z M15.354,7.941"/>
		<path d="M17.136,4.532h-2.151c-0.296-0.4-1.177-0.715-2.294-0.819l-0.61-0.032c-0.03,0-0.056,0-0.082,0c-0.024,0-0.048,0-0.072,0
			c-0.203-0.653-0.956-2.607-2.639-3.089C9.133,0.247,8.787,0,8.38,0C7.826,0,7.383,0.45,7.383,1c0,0.547,0.443,0.999,0.997,0.999
			c0.463,0,0.853-0.322,0.963-0.753c1.14,0.475,1.738,1.843,1.966,2.471c-1.115,0.1-2.004,0.42-2.299,0.821H6.865
			c-2.122,0,0,9.101,0,9.101h10.271C17.136,13.639,19.257,4.532,17.136,4.532z M7.771,7.941c0-0.887,0.715-1.608,1.602-1.608
			c0.895,0,1.616,0.721,1.616,1.608c0,0.889-0.721,1.611-1.616,1.611C8.486,9.552,7.771,8.83,7.771,7.941z M13.893,12.042h-3.786
			v-1.19h1.892h1.894V12.042z M14.626,9.552c-0.888,0-1.609-0.722-1.609-1.611c0-0.887,0.721-1.608,1.609-1.608
			c0.888,0,1.609,0.721,1.609,1.608C16.235,8.83,15.515,9.552,14.626,9.552z"/>
	</g>
	<path d="M16.795,19.596c0.002-0.013-0.001-0.027-0.001-0.04c0-0.014,0.001-0.027,0.001-0.042c0-0.217-0.176-0.395-0.393-0.393
		h-0.063v-1.409c-0.125,0.091-0.274,0.143-0.437,0.143c-0.013,0-0.027,0-0.041,0c-0.134-0.007-0.256-0.05-0.36-0.118l-0.036,0.031
		v1.353h-0.054c-0.22,0-0.396,0.176-0.396,0.396c0,0.002,0,0.004,0,0.006c-0.004,0.024-0.009,0.05-0.009,0.075v0.482
		c0,0.176,0.143,0.318,0.319,0.318c0.174,0,0.319-0.142,0.319-0.318v-0.168l0.517-0.002v0.17c0,0.173,0.143,0.316,0.316,0.316
		c0.177,0,0.319-0.143,0.319-0.316L16.795,19.596z M16.795,19.596"/>
	<g>
		<path d="M14.841,15.784c0.186,0.163,0.412,0.453,0.535,0.805c0.145-0.147,0.345-0.233,0.567-0.22l0,0
			c0.106,0.005,0.208,0.035,0.3,0.082c-0.208-0.741-0.831-1.436-1.346-1.654L14.841,15.784z"/>
		<path d="M16.795,19.596"/>
		<circle cx="15.903" cy="17.08" r="0.479"/>
	</g>
	<g>
		<path d="M9.103,14.797c-0.515,0.219-1.136,0.914-1.346,1.654c0.092-0.047,0.194-0.077,0.3-0.082l0,0
			c0.222-0.013,0.422,0.072,0.567,0.22c0.124-0.352,0.35-0.642,0.535-0.805L9.103,14.797z"/>
		<path d="M7.203,20.08c0,0.173,0.142,0.316,0.319,0.316c0.174,0,0.317-0.143,0.317-0.316v-0.17l0.517,0.002v0.168
			c0,0.176,0.145,0.318,0.319,0.318c0.176,0,0.319-0.142,0.319-0.318v-0.482c0-0.024-0.005-0.05-0.009-0.075
			c0-0.002,0-0.004,0-0.006c0-0.22-0.177-0.396-0.396-0.396H8.534v-1.353l-0.035-0.031c-0.104,0.067-0.226,0.111-0.36,0.118
			c-0.013,0-0.027,0-0.04,0c-0.163,0-0.313-0.052-0.437-0.143v1.409H7.598c-0.217-0.002-0.393,0.176-0.393,0.393
			c0,0.014,0.002,0.027,0.002,0.042c0,0.013-0.004,0.027-0.002,0.04L7.203,20.08z M7.205,19.596"/>
		<circle cx="8.098" cy="17.08" r="0.479"/>
	</g>
	<circle cx="10.56" cy="21.073" r="0.479"/>
	<circle cx="13.457" cy="21.073" r="0.479"/>
</g>
</svg>
